<svg width="125" height="25" viewBox="0 0 125 25" fill="none" xmlns="http://www.w3.org/2000/svg">
<g filter="url(#filter0_d_1_2)">
<path d="M15.6459 13.832C15.6459 14.408 15.5019 14.936 15.2139 15.416C14.9259 15.896 14.5419 16.28 14.0619 16.568C13.5819 16.856 13.0539 17 12.4779 17H7.86991C7.29391 17 6.75791 16.856 6.26191 16.568C5.78191 16.28 5.39791 15.896 5.10991 15.416C4.82191 14.936 4.67791 14.408 4.67791 13.832V3.968C4.67791 3.376 4.82191 2.84 5.10991 2.36C5.39791 1.88 5.78191 1.496 6.26191 1.208C6.75791 0.919999 7.29391 0.775999 7.86991 0.775999H12.4779C13.0539 0.775999 13.5819 0.919999 14.0619 1.208C14.5419 1.496 14.9259 1.88 15.2139 2.36C15.5019 2.84 15.6459 3.376 15.6459 3.968V13.832ZM12.7899 13.832V3.968C12.7899 3.744 12.6859 3.632 12.4779 3.632H7.86991C7.78991 3.632 7.70991 3.664 7.62991 3.728C7.56591 3.792 7.53391 3.872 7.53391 3.968V13.832C7.53391 13.912 7.56591 13.992 7.62991 14.072C7.70991 14.136 7.78991 14.168 7.86991 14.168H12.4779C12.5579 14.168 12.6299 14.136 12.6939 14.072C12.7579 13.992 12.7899 13.912 12.7899 13.832ZM27.1914 13.832C27.1914 14.408 27.0474 14.936 26.7594 15.416C26.4714 15.896 26.0874 16.28 25.6074 16.568C25.1274 16.856 24.5994 17 24.0234 17H19.7034C19.1274 17 18.5914 16.856 18.0954 16.568C17.6154 16.28 17.2314 15.896 16.9434 15.416C16.6554 14.936 16.5114 14.408 16.5114 13.832V1.88C16.5114 1.56 16.6154 1.296 16.8234 1.088C17.0474 0.879999 17.3114 0.775999 17.6154 0.775999H18.2874C18.5914 0.775999 18.8474 0.879999 19.0554 1.088C19.2794 1.296 19.3914 1.56 19.3914 1.88V13.832C19.3914 13.912 19.4234 13.992 19.4874 14.072C19.5514 14.136 19.6234 14.168 19.7034 14.168H24.0234C24.1034 14.168 24.1754 14.136 24.2394 14.072C24.3034 13.992 24.3354 13.912 24.3354 13.832V1.88C24.3354 1.56 24.4394 1.296 24.6474 1.088C24.8714 0.879999 25.1354 0.775999 25.4394 0.775999H26.0874C26.4074 0.775999 26.6714 0.879999 26.8794 1.088C27.0874 1.296 27.1914 1.56 27.1914 1.88V13.832ZM38.9362 15.488C39.0962 15.856 39.0722 16.192 38.8642 16.496C38.6242 16.832 38.3202 17 37.9522 17H37.2322C37.0242 17 36.8162 16.936 36.6082 16.808C36.4162 16.68 36.2802 16.52 36.2002 16.328L33.9442 10.928C33.8642 10.736 33.7202 10.64 33.5122 10.64H31.2802C31.0722 10.64 30.9682 10.744 30.9682 10.952V15.896C30.9682 16.2 30.8562 16.464 30.6322 16.688C30.4242 16.896 30.1682 17 29.8642 17H29.1922C28.8882 17 28.6322 16.896 28.4242 16.688C28.2322 16.464 28.1362 16.2 28.1362 15.896V1.88C28.1362 1.56 28.2322 1.296 28.4242 1.088C28.6322 0.879999 28.8882 0.775999 29.1922 0.775999H35.6962C36.2722 0.775999 36.8002 0.919999 37.2802 1.208C37.7602 1.496 38.1442 1.88 38.4322 2.36C38.7202 2.84 38.8642 3.376 38.8642 3.968V7.472C38.8642 8.096 38.6962 8.664 38.3602 9.176C38.0402 9.672 37.6162 10.056 37.0882 10.328C37.0242 10.344 36.9762 10.4 36.9442 10.496C36.9122 10.576 36.9202 10.656 36.9682 10.736L38.9362 15.488ZM36.0082 7.472V3.968C36.0082 3.744 35.9042 3.632 35.6962 3.632H31.2802C31.0722 3.632 30.9682 3.736 30.9682 3.944V7.472C30.9682 7.68 31.0722 7.784 31.2802 7.784H35.6962C35.9042 7.784 36.0082 7.68 36.0082 7.472ZM53.757 5.648C53.757 5.952 53.653 6.216 53.445 6.44C53.253 6.648 52.997 6.752 52.677 6.752H51.861C51.797 6.752 51.749 6.784 51.717 6.848C51.685 6.896 51.677 6.96 51.693 7.04L52.413 8.216C52.621 8.6 52.621 8.968 52.413 9.32C52.205 9.688 51.885 9.872 51.453 9.872H50.709C50.277 9.872 49.965 9.688 49.773 9.32L49.245 8.432C49.197 8.368 49.133 8.336 49.053 8.336C48.989 8.336 48.941 8.368 48.909 8.432L48.405 9.296C48.197 9.648 47.885 9.824 47.469 9.824H46.701C46.285 9.824 45.973 9.648 45.765 9.296C45.557 8.912 45.557 8.544 45.765 8.192L46.461 7.04C46.493 6.96 46.485 6.896 46.437 6.848C46.405 6.784 46.357 6.752 46.293 6.752H45.453C45.149 6.752 44.893 6.648 44.685 6.44C44.477 6.216 44.373 5.952 44.373 5.648V5C44.373 4.68 44.477 4.424 44.685 4.232C44.893 4.024 45.149 3.92 45.453 3.92H46.293C46.357 3.92 46.405 3.888 46.437 3.824C46.485 3.76 46.493 3.696 46.461 3.632L45.765 2.48C45.557 2.096 45.557 1.728 45.765 1.376C45.973 1.008 46.285 0.823999 46.701 0.823999H47.469C47.885 0.823999 48.197 1.008 48.405 1.376L48.909 2.24C48.941 2.288 48.989 2.312 49.053 2.312C49.133 2.312 49.197 2.288 49.245 2.24L49.773 1.328C49.981 0.959999 50.293 0.775999 50.709 0.775999H51.453C51.885 0.775999 52.205 0.959999 52.413 1.328C52.621 1.712 52.621 2.08 52.413 2.432L51.693 3.632C51.677 3.696 51.685 3.76 51.717 3.824C51.749 3.888 51.797 3.92 51.861 3.92H52.677C52.997 3.92 53.253 4.024 53.445 4.232C53.653 4.424 53.757 4.68 53.757 5V5.648ZM70.0566 13.832C70.0566 14.408 69.9126 14.936 69.6246 15.416C69.3366 15.896 68.9526 16.28 68.4726 16.568C67.9926 16.856 67.4646 17 66.8886 17H62.2806C61.7046 17 61.1686 16.856 60.6726 16.568C60.1926 16.28 59.8086 15.896 59.5206 15.416C59.2326 14.936 59.0886 14.408 59.0886 13.832V13.112C59.0886 12.808 59.1926 12.552 59.4006 12.344C59.6246 12.12 59.8886 12.008 60.1926 12.008H60.8646C61.1526 12.008 61.4006 12.12 61.6086 12.344C61.8326 12.552 61.9446 12.808 61.9446 13.112V13.832C61.9446 13.912 61.9766 13.992 62.0406 14.072C62.1206 14.136 62.2006 14.168 62.2806 14.168H66.8886C66.9686 14.168 67.0406 14.136 67.1046 14.072C67.1686 13.992 67.2006 13.912 67.2006 13.832V11.648C67.2006 11.472 67.1206 11.36 66.9606 11.312L61.2006 9.152C60.5606 8.928 60.0486 8.536 59.6646 7.976C59.2806 7.416 59.0886 6.8 59.0886 6.128V3.968C59.0886 3.376 59.2326 2.84 59.5206 2.36C59.8086 1.88 60.1926 1.496 60.6726 1.208C61.1686 0.919999 61.7046 0.775999 62.2806 0.775999H66.8886C67.4646 0.775999 67.9926 0.919999 68.4726 1.208C68.9526 1.496 69.3366 1.88 69.6246 2.36C69.9126 2.84 70.0566 3.376 70.0566 3.968V4.616C70.0566 4.92 69.9446 5.176 69.7206 5.384C69.5126 5.592 69.2566 5.696 68.9526 5.696H68.3046C68.0006 5.696 67.7366 5.592 67.5126 5.384C67.3046 5.176 67.2006 4.92 67.2006 4.616V3.968C67.2006 3.744 67.0966 3.632 66.8886 3.632H62.2806C62.2006 3.632 62.1206 3.664 62.0406 3.728C61.9766 3.792 61.9446 3.872 61.9446 3.968V6.128C61.9446 6.32 62.0246 6.44 62.1846 6.488L67.9686 8.648C68.5926 8.872 69.0966 9.264 69.4806 9.824C69.8646 10.384 70.0566 10.992 70.0566 11.648V13.832ZM81.626 2.528C81.626 2.832 81.522 3.096 81.314 3.32C81.106 3.528 80.842 3.632 80.522 3.632H78.002C77.794 3.632 77.69 3.736 77.69 3.944V15.896C77.69 16.2 77.578 16.464 77.354 16.688C77.146 16.896 76.89 17 76.586 17H75.962C75.658 17 75.394 16.896 75.17 16.688C74.962 16.464 74.858 16.2 74.858 15.896V3.944C74.858 3.736 74.754 3.632 74.546 3.632H72.002C71.698 3.632 71.434 3.528 71.21 3.32C71.002 3.096 70.898 2.832 70.898 2.528V1.88C70.898 1.56 71.002 1.296 71.21 1.088C71.434 0.879999 71.698 0.775999 72.002 0.775999H80.522C80.842 0.775999 81.106 0.879999 81.314 1.088C81.522 1.296 81.626 1.56 81.626 1.88V2.528ZM93.1548 13.832C93.1548 14.408 93.0108 14.936 92.7228 15.416C92.4348 15.896 92.0508 16.28 91.5708 16.568C91.0908 16.856 90.5628 17 89.9868 17H85.6668C85.0908 17 84.5548 16.856 84.0588 16.568C83.5788 16.28 83.1948 15.896 82.9068 15.416C82.6188 14.936 82.4748 14.408 82.4748 13.832V1.88C82.4748 1.56 82.5788 1.296 82.7868 1.088C83.0108 0.879999 83.2748 0.775999 83.5788 0.775999H84.2508C84.5548 0.775999 84.8108 0.879999 85.0188 1.088C85.2428 1.296 85.3548 1.56 85.3548 1.88V13.832C85.3548 13.912 85.3868 13.992 85.4508 14.072C85.5148 14.136 85.5868 14.168 85.6668 14.168H89.9868C90.0668 14.168 90.1388 14.136 90.2028 14.072C90.2668 13.992 90.2988 13.912 90.2988 13.832V1.88C90.2988 1.56 90.4028 1.296 90.6108 1.088C90.8348 0.879999 91.0988 0.775999 91.4028 0.775999H92.0508C92.3708 0.775999 92.6348 0.879999 92.8428 1.088C93.0508 1.296 93.1548 1.56 93.1548 1.88V13.832ZM104.708 13.832C104.708 14.408 104.564 14.936 104.276 15.416C103.988 15.896 103.604 16.28 103.124 16.568C102.644 16.856 102.116 17 101.54 17H95.1316C94.8276 17 94.5636 16.896 94.3396 16.688C94.1316 16.464 94.0276 16.2 94.0276 15.896V1.88C94.0276 1.56 94.1316 1.296 94.3396 1.088C94.5636 0.879999 94.8276 0.775999 95.1316 0.775999H101.54C102.116 0.775999 102.644 0.919999 103.124 1.208C103.604 1.496 103.988 1.88 104.276 2.36C104.564 2.84 104.708 3.376 104.708 3.968V13.832ZM101.852 13.832V3.968C101.852 3.744 101.748 3.632 101.54 3.632H97.2196C97.0116 3.632 96.9076 3.736 96.9076 3.944V13.856C96.9076 14.064 97.0116 14.168 97.2196 14.168H101.54C101.62 14.168 101.692 14.136 101.756 14.072C101.82 13.992 101.852 13.912 101.852 13.832ZM108.46 15.896C108.46 16.2 108.348 16.464 108.124 16.688C107.916 16.896 107.66 17 107.356 17H106.708C106.404 17 106.14 16.896 105.916 16.688C105.708 16.464 105.604 16.2 105.604 15.896V1.88C105.604 1.56 105.708 1.296 105.916 1.088C106.14 0.879999 106.404 0.775999 106.708 0.775999H107.356C107.66 0.775999 107.916 0.879999 108.124 1.088C108.348 1.296 108.46 1.56 108.46 1.88V15.896ZM120.321 13.832C120.321 14.408 120.177 14.936 119.889 15.416C119.601 15.896 119.217 16.28 118.737 16.568C118.257 16.856 117.729 17 117.153 17H112.545C111.969 17 111.433 16.856 110.937 16.568C110.457 16.28 110.073 15.896 109.785 15.416C109.497 14.936 109.353 14.408 109.353 13.832V3.968C109.353 3.376 109.497 2.84 109.785 2.36C110.073 1.88 110.457 1.496 110.937 1.208C111.433 0.919999 111.969 0.775999 112.545 0.775999H117.153C117.729 0.775999 118.257 0.919999 118.737 1.208C119.217 1.496 119.601 1.88 119.889 2.36C120.177 2.84 120.321 3.376 120.321 3.968V13.832ZM117.465 13.832V3.968C117.465 3.744 117.361 3.632 117.153 3.632H112.545C112.465 3.632 112.385 3.664 112.305 3.728C112.241 3.792 112.209 3.872 112.209 3.968V13.832C112.209 13.912 112.241 13.992 112.305 14.072C112.385 14.136 112.465 14.168 112.545 14.168H117.153C117.233 14.168 117.305 14.136 117.369 14.072C117.433 13.992 117.465 13.912 117.465 13.832Z" fill="black"/>
</g>
<defs>
<filter id="filter0_d_1_2" x="0.677917" y="0.776001" width="123.643" height="24.224" filterUnits="userSpaceOnUse" color-interpolation-filters="sRGB">
<feFlood flood-opacity="0" result="BackgroundImageFix"/>
<feColorMatrix in="SourceAlpha" type="matrix" values="0 0 0 0 0 0 0 0 0 0 0 0 0 0 0 0 0 0 127 0" result="hardAlpha"/>
<feOffset dy="4"/>
<feGaussianBlur stdDeviation="2"/>
<feComposite in2="hardAlpha" operator="out"/>
<feColorMatrix type="matrix" values="0 0 0 0 0 0 0 0 0 0 0 0 0 0 0 0 0 0 0.25 0"/>
<feBlend mode="normal" in2="BackgroundImageFix" result="effect1_dropShadow_1_2"/>
<feBlend mode="normal" in="SourceGraphic" in2="effect1_dropShadow_1_2" result="shape"/>
</filter>
</defs>
</svg>
