<svg width="547" height="95" viewBox="0 0 547 95" fill="none" xmlns="http://www.w3.org/2000/svg">
<g opacity="0.98" filter="url(#filter0_d_1_2)">
<path d="M62.789 70.104C62.789 73.176 62.021 75.992 60.485 78.552C58.949 81.112 56.901 83.16 54.341 84.696C51.781 86.232 48.965 87 45.893 87H21.317C18.245 87 15.3863 86.232 12.741 84.696C10.181 83.16 8.13301 81.112 6.59701 78.552C5.06101 75.992 4.29301 73.176 4.29301 70.104V17.496C4.29301 14.3387 5.06101 11.48 6.59701 8.92C8.13301 6.36 10.181 4.31199 12.741 2.77599C15.3863 1.23999 18.245 0.471992 21.317 0.471992H45.893C48.965 0.471992 51.781 1.23999 54.341 2.77599C56.901 4.31199 58.949 6.36 60.485 8.92C62.021 11.48 62.789 14.3387 62.789 17.496V70.104ZM47.557 70.104V17.496C47.557 16.3013 47.0023 15.704 45.893 15.704H21.317C20.8903 15.704 20.4637 15.8747 20.037 16.216C19.6957 16.5573 19.525 16.984 19.525 17.496V70.104C19.525 70.5307 19.6957 70.9573 20.037 71.384C20.4637 71.7253 20.8903 71.896 21.317 71.896H45.893C46.3197 71.896 46.7037 71.7253 47.045 71.384C47.3863 70.9573 47.557 70.5307 47.557 70.104ZM124.365 70.104C124.365 73.176 123.597 75.992 122.061 78.552C120.525 81.112 118.477 83.16 115.917 84.696C113.357 86.232 110.541 87 107.469 87H84.429C81.357 87 78.4983 86.232 75.853 84.696C73.293 83.16 71.245 81.112 69.709 78.552C68.173 75.992 67.405 73.176 67.405 70.104V6.35999C67.405 4.65333 67.9597 3.24533 69.069 2.13599C70.2637 1.02666 71.6717 0.471992 73.293 0.471992H76.877C78.4983 0.471992 79.8637 1.02666 80.973 2.13599C82.1677 3.24533 82.765 4.65333 82.765 6.35999V70.104C82.765 70.5307 82.9357 70.9573 83.277 71.384C83.6183 71.7253 84.0023 71.896 84.429 71.896H107.469C107.896 71.896 108.28 71.7253 108.621 71.384C108.962 70.9573 109.133 70.5307 109.133 70.104V6.35999C109.133 4.65333 109.688 3.24533 110.797 2.13599C111.992 1.02666 113.4 0.471992 115.021 0.471992H118.477C120.184 0.471992 121.592 1.02666 122.701 2.13599C123.81 3.24533 124.365 4.65333 124.365 6.35999V70.104ZM187.004 78.936C187.857 80.8987 187.729 82.6907 186.62 84.312C185.34 86.104 183.719 87 181.756 87H177.916C176.807 87 175.697 86.6587 174.588 85.976C173.564 85.2933 172.839 84.44 172.412 83.416L160.38 54.616C159.953 53.592 159.185 53.08 158.076 53.08H146.172C145.063 53.08 144.508 53.6347 144.508 54.744V81.112C144.508 82.7333 143.911 84.1413 142.716 85.336C141.607 86.4453 140.241 87 138.62 87H135.036C133.415 87 132.049 86.4453 130.94 85.336C129.916 84.1413 129.404 82.7333 129.404 81.112V6.35999C129.404 4.65333 129.916 3.24533 130.94 2.13599C132.049 1.02666 133.415 0.471992 135.036 0.471992H169.724C172.796 0.471992 175.612 1.23999 178.172 2.77599C180.732 4.31199 182.78 6.36 184.316 8.92C185.852 11.48 186.62 14.3387 186.62 17.496V36.184C186.62 39.512 185.724 42.5413 183.932 45.272C182.225 47.9173 179.964 49.9653 177.148 51.416C176.807 51.5013 176.551 51.8 176.38 52.312C176.209 52.7387 176.252 53.1653 176.508 53.592L187.004 78.936ZM171.388 36.184V17.496C171.388 16.3013 170.833 15.704 169.724 15.704H146.172C145.063 15.704 144.508 16.2587 144.508 17.368V36.184C144.508 37.2933 145.063 37.848 146.172 37.848H169.724C170.833 37.848 171.388 37.2933 171.388 36.184ZM274.624 70.104C274.624 73.176 273.856 75.992 272.32 78.552C270.784 81.112 268.736 83.16 266.176 84.696C263.616 86.232 260.8 87 257.728 87H233.152C230.08 87 227.221 86.232 224.576 84.696C222.016 83.16 219.968 81.112 218.432 78.552C216.896 75.992 216.128 73.176 216.128 70.104V66.264C216.128 64.6427 216.683 63.2773 217.792 62.168C218.987 60.9733 220.395 60.376 222.016 60.376H225.6C227.136 60.376 228.459 60.9733 229.568 62.168C230.763 63.2773 231.36 64.6427 231.36 66.264V70.104C231.36 70.5307 231.531 70.9573 231.872 71.384C232.299 71.7253 232.725 71.896 233.152 71.896H257.728C258.155 71.896 258.539 71.7253 258.88 71.384C259.221 70.9573 259.392 70.5307 259.392 70.104V58.456C259.392 57.5173 258.965 56.92 258.112 56.664L227.392 45.144C223.979 43.9493 221.248 41.8587 219.2 38.872C217.152 35.8853 216.128 32.6 216.128 29.016V17.496C216.128 14.3387 216.896 11.48 218.432 8.92C219.968 6.36 222.016 4.31199 224.576 2.77599C227.221 1.23999 230.08 0.471992 233.152 0.471992H257.728C260.8 0.471992 263.616 1.23999 266.176 2.77599C268.736 4.31199 270.784 6.36 272.32 8.92C273.856 11.48 274.624 14.3387 274.624 17.496V20.952C274.624 22.5733 274.027 23.9387 272.832 25.048C271.723 26.1573 270.357 26.712 268.736 26.712H265.28C263.659 26.712 262.251 26.1573 261.056 25.048C259.947 23.9387 259.392 22.5733 259.392 20.952V17.496C259.392 16.3013 258.837 15.704 257.728 15.704H233.152C232.725 15.704 232.299 15.8747 231.872 16.216C231.531 16.5573 231.36 16.984 231.36 17.496V29.016C231.36 30.04 231.787 30.68 232.64 30.936L263.488 42.456C266.816 43.6507 269.504 45.7413 271.552 48.728C273.6 51.7147 274.624 54.9573 274.624 58.456V70.104ZM336.328 9.81599C336.328 11.4373 335.773 12.8453 334.664 14.04C333.555 15.1493 332.147 15.704 330.44 15.704H317C315.891 15.704 315.336 16.2587 315.336 17.368V81.112C315.336 82.7333 314.739 84.1413 313.544 85.336C312.435 86.4453 311.069 87 309.448 87H306.12C304.499 87 303.091 86.4453 301.896 85.336C300.787 84.1413 300.232 82.7333 300.232 81.112V17.368C300.232 16.2587 299.677 15.704 298.568 15.704H285C283.379 15.704 281.971 15.1493 280.776 14.04C279.667 12.8453 279.112 11.4373 279.112 9.81599V6.35999C279.112 4.65333 279.667 3.24533 280.776 2.13599C281.971 1.02666 283.379 0.471992 285 0.471992H330.44C332.147 0.471992 333.555 1.02666 334.664 2.13599C335.773 3.24533 336.328 4.65333 336.328 6.35999V9.81599ZM397.815 70.104C397.815 73.176 397.047 75.992 395.511 78.552C393.975 81.112 391.927 83.16 389.367 84.696C386.807 86.232 383.991 87 380.919 87H357.879C354.807 87 351.948 86.232 349.303 84.696C346.743 83.16 344.695 81.112 343.159 78.552C341.623 75.992 340.855 73.176 340.855 70.104V6.35999C340.855 4.65333 341.41 3.24533 342.519 2.13599C343.714 1.02666 345.122 0.471992 346.743 0.471992H350.327C351.948 0.471992 353.314 1.02666 354.423 2.13599C355.618 3.24533 356.215 4.65333 356.215 6.35999V70.104C356.215 70.5307 356.386 70.9573 356.727 71.384C357.068 71.7253 357.452 71.896 357.879 71.896H380.919C381.346 71.896 381.73 71.7253 382.071 71.384C382.412 70.9573 382.583 70.5307 382.583 70.104V6.35999C382.583 4.65333 383.138 3.24533 384.247 2.13599C385.442 1.02666 386.85 0.471992 388.471 0.471992H391.927C393.634 0.471992 395.042 1.02666 396.151 2.13599C397.26 3.24533 397.815 4.65333 397.815 6.35999V70.104ZM459.43 70.104C459.43 73.176 458.662 75.992 457.126 78.552C455.59 81.112 453.542 83.16 450.982 84.696C448.422 86.232 445.606 87 442.534 87H408.358C406.737 87 405.329 86.4453 404.134 85.336C403.025 84.1413 402.47 82.7333 402.47 81.112V6.35999C402.47 4.65333 403.025 3.24533 404.134 2.13599C405.329 1.02666 406.737 0.471992 408.358 0.471992H442.534C445.606 0.471992 448.422 1.23999 450.982 2.77599C453.542 4.31199 455.59 6.36 457.126 8.92C458.662 11.48 459.43 14.3387 459.43 17.496V70.104ZM444.198 70.104V17.496C444.198 16.3013 443.643 15.704 442.534 15.704H419.494C418.385 15.704 417.83 16.2587 417.83 17.368V70.232C417.83 71.3413 418.385 71.896 419.494 71.896H442.534C442.961 71.896 443.345 71.7253 443.686 71.384C444.027 70.9573 444.198 70.5307 444.198 70.104ZM479.445 81.112C479.445 82.7333 478.848 84.1413 477.653 85.336C476.544 86.4453 475.178 87 473.557 87H470.101C468.48 87 467.072 86.4453 465.877 85.336C464.768 84.1413 464.213 82.7333 464.213 81.112V6.35999C464.213 4.65333 464.768 3.24533 465.877 2.13599C467.072 1.02666 468.48 0.471992 470.101 0.471992H473.557C475.178 0.471992 476.544 1.02666 477.653 2.13599C478.848 3.24533 479.445 4.65333 479.445 6.35999V81.112ZM542.699 70.104C542.699 73.176 541.931 75.992 540.395 78.552C538.859 81.112 536.811 83.16 534.251 84.696C531.691 86.232 528.875 87 525.803 87H501.227C498.155 87 495.296 86.232 492.651 84.696C490.091 83.16 488.043 81.112 486.507 78.552C484.971 75.992 484.203 73.176 484.203 70.104V17.496C484.203 14.3387 484.971 11.48 486.507 8.92C488.043 6.36 490.091 4.31199 492.651 2.77599C495.296 1.23999 498.155 0.471992 501.227 0.471992H525.803C528.875 0.471992 531.691 1.23999 534.251 2.77599C536.811 4.31199 538.859 6.36 540.395 8.92C541.931 11.48 542.699 14.3387 542.699 17.496V70.104ZM527.467 70.104V17.496C527.467 16.3013 526.912 15.704 525.803 15.704H501.227C500.8 15.704 500.374 15.8747 499.947 16.216C499.606 16.5573 499.435 16.984 499.435 17.496V70.104C499.435 70.5307 499.606 70.9573 499.947 71.384C500.374 71.7253 500.8 71.896 501.227 71.896H525.803C526.23 71.896 526.614 71.7253 526.955 71.384C527.296 70.9573 527.467 70.5307 527.467 70.104Z" fill="black"/>
</g>
<defs>
<filter id="filter0_d_1_2" x="0.292999" y="0.471985" width="546.406" height="94.528" filterUnits="userSpaceOnUse" color-interpolation-filters="sRGB">
<feFlood flood-opacity="0" result="BackgroundImageFix"/>
<feColorMatrix in="SourceAlpha" type="matrix" values="0 0 0 0 0 0 0 0 0 0 0 0 0 0 0 0 0 0 127 0" result="hardAlpha"/>
<feOffset dy="4"/>
<feGaussianBlur stdDeviation="2"/>
<feComposite in2="hardAlpha" operator="out"/>
<feColorMatrix type="matrix" values="0 0 0 0 0 0 0 0 0 0 0 0 0 0 0 0 0 0 0.25 0"/>
<feBlend mode="normal" in2="BackgroundImageFix" result="effect1_dropShadow_1_2"/>
<feBlend mode="normal" in="SourceGraphic" in2="effect1_dropShadow_1_2" result="shape"/>
</filter>
</defs>
</svg>
